<svg width="351" height="337" viewBox="0 0 351 337" fill="none" xmlns="http://www.w3.org/2000/svg">
<path d="M406.192 64.473C391.531 48.8226 380.181 30.1389 362.657 17.3668C335.131 -2.73736 295.516 -4.69753 263.33 7.93194C231.144 20.5614 206.072 46.0188 189.546 74.8445C180.853 90.011 174.025 106.555 161.287 118.948C150.518 129.419 136.366 136.1 122.947 143.376C101.311 155.075 80.4754 169.212 66.4748 188.609C52.4741 208.006 46.2142 233.482 55.1645 255.342C61.1997 270.093 73.3561 281.829 85.81 292.455C100.465 304.948 116.217 316.647 134.396 324.09C157.155 333.352 182.42 335.343 207.195 336.286C251.118 337.95 295.11 336.706 338.846 332.564C374.661 329.177 411.56 323.396 441.525 304.681C483.5 278.473 505.142 230.455 510.014 183.367C511.997 164.535 511.495 144.964 503.747 127.49C485.219 85.6937 435.225 95.4697 406.192 64.473Z" fill="#EFF1F7"/>
<path d="M120.666 152.226C120.666 152.226 109.513 150.233 106.389 158.088C103.264 165.942 106.389 193.069 106.389 193.069L148 223L120.666 152.226Z" fill="#3F3D56"/>
<path d="M173.717 272.909L156.916 277.814C154.475 278.521 151.915 277.148 151.188 274.744C150.472 272.337 151.864 269.812 154.302 269.096L171.079 264.186C173.519 263.479 176.079 264.849 176.807 267.251C177.532 269.654 176.15 272.183 173.717 272.909Z" fill="#2BD0D0"/>
<circle cx="172.5" cy="282.5" r="7.5" fill="#25233A"/>
<circle cx="171.5" cy="284.5" r="3.5" fill="#3F3D56"/>
<circle cx="142.5" cy="275.5" r="7.5" fill="#25233A"/>
<path d="M145 275.5C145 277.433 143.433 279 141.5 279C139.567 279 138 277.433 138 275.5C138 273.567 139.567 272 141.5 272C143.433 272 145 273.567 145 275.5Z" fill="url(#paint0_linear_0_355)"/>
<circle cx="140.5" cy="285.5" r="7.5" fill="#25233A"/>
<path d="M146 285.5C146 287.433 144.433 289 142.5 289C140.567 289 139 287.433 139 285.5C139 283.567 140.567 282 142.5 282C144.433 282 146 283.567 146 285.5Z" fill="#3F3D56"/>
<path d="M174.682 279.913L140.56 272.924C138.158 272.425 136.606 270.05 137.087 267.612C137.579 265.177 139.916 263.602 142.318 264.088L176.44 271.063C178.842 271.562 180.394 273.937 179.913 276.375C179.427 278.816 177.088 280.397 174.682 279.913Z" fill="#2BD0D0"/>
<path d="M154 225H163V265.227C163 267.863 160.986 270 158.502 270C156.018 270 154.004 267.863 154.004 265.227V225H154Z" fill="#2BD0D0"/>
<path d="M156.707 276.896L139.918 281.813C137.477 282.523 134.914 281.149 134.188 278.741C133.472 276.333 134.863 273.807 137.3 273.09L154.089 268.186C156.527 267.479 159.086 268.85 159.814 271.253C160.525 273.657 159.137 276.177 156.707 276.896Z" fill="#2BD0D0"/>
<path d="M160 277.26L157.917 277.811C157.295 277.974 156.645 278.033 156 277.983L156.87 277.755C157.475 277.598 158.042 277.342 158.542 277L160 277.26Z" fill="url(#paint1_linear_0_355)"/>
<path d="M177 267.288C176.999 268.277 176.648 269.236 176.005 270L162 267.232C162.352 266.763 162.607 266.231 162.749 265.665L171.376 263.169C172.499 262.852 173.704 262.985 174.726 263.537C175.749 264.089 176.505 265.016 176.828 266.113C176.94 266.495 176.998 266.891 177 267.288Z" fill="url(#paint2_linear_0_355)"/>
<path opacity="0.31" d="M153.147 266.382C153.049 266.033 153 265.677 153 265.32V226H156.962V268.376C156.923 268.584 156.936 268.796 157 269C156.4 268.788 155.757 268.672 155.104 268.657C154.643 268.63 154.18 268.63 153.719 268.657L154.003 268.59C154.177 268.563 153.376 267.185 153.147 266.382Z" fill="url(#paint3_linear_0_355)"/>
<path opacity="0.31" d="M177.522 279.035C176.87 279.405 176.137 279.598 175.392 279.597C175.093 279.596 174.794 279.566 174.499 279.506L159.444 276.395L158.19 276.139C157.761 276.476 157.275 276.729 156.757 276.884L156.011 277.108L140.541 281.813C138.18 282.524 135.702 281.147 135 278.734C136.342 280.008 138.379 280.127 139.853 279.017C141.742 277.679 149.26 275.669 153.52 274.6C155.533 274.108 157.073 272.448 157.449 270.365C157.459 270.243 157.477 270.121 157.502 270C158.212 270.786 159.516 271.667 161.873 272.416C167.677 274.244 177.102 275.454 177.102 275.454C177.102 275.454 178.803 277.163 177.522 279.035Z" fill="url(#paint4_linear_0_355)"/>
<path d="M179 278C178.736 278.389 178.397 278.728 178 279C178.269 278.74 178.614 278.392 179 278Z" fill="url(#paint5_linear_0_355)"/>
<path d="M153.866 266.464C154.051 267.274 154.442 268.021 155 268.63C154.861 268.658 154.717 268.694 154.573 268.735L140.392 273C138.211 272.437 136.775 270.324 137.029 268.053C137.283 265.782 139.15 264.051 141.4 264C141.702 264.001 142.003 264.031 142.3 264.091L153.866 266.464Z" fill="url(#paint6_linear_0_355)"/>
<path d="M175 75.8247C175 75.8247 174.814 61.7591 163.531 62.972C152.249 64.1849 153.114 59.528 148.294 60.0394C143.475 60.5508 137.877 65.3027 139.485 71.1724C141.093 77.0421 135.231 78.3545 131.381 82.8077C127.531 87.2609 132.287 90.904 138.773 95.2577C145.26 99.6113 138.37 98.4844 142.216 105.368C146.061 112.251 159.079 103.458 159.079 103.458L175 75.8247Z" fill="#503164"/>
<path d="M82.8394 309.73L90.7905 310V246.388C90.7905 246.388 91.191 229.938 106.688 228.288C122.185 226.638 262.732 206.257 262.732 206.257C262.732 206.257 268.303 205.667 271.511 216.369C274.719 227.071 277.842 269.153 277.842 269.153L320.981 274.973C320.981 274.973 322.12 200.636 306.542 196.533C290.963 192.431 87.2356 213.335 87.2356 213.335C87.2356 213.335 72.1254 292.288 82.8394 309.73Z" fill="#2BD0D0"/>
<path opacity="0.197289" d="M82.8394 309.73L90.7905 310V246.388C90.7905 246.388 91.191 229.938 106.688 228.288C122.185 226.638 262.732 206.257 262.732 206.257C262.732 206.257 268.303 205.667 271.511 216.369C274.719 227.071 277.842 269.153 277.842 269.153L320.981 274.973C320.981 274.973 322.12 200.636 306.542 196.533C290.963 192.431 87.2356 213.335 87.2356 213.335C87.2356 213.335 72.1254 292.288 82.8394 309.73Z" fill="url(#paint7_linear_0_355)"/>
<path d="M42 220.479C42 220.479 45.8977 198.891 73.3121 193.233L266.829 171.042C266.829 171.042 285.827 170.253 294.518 175.52C303.209 180.786 315.613 185.151 320.699 208.982C325.785 232.813 327 273.524 327 273.524L322.189 274.272C322.189 274.272 315.167 200.553 307.728 195.886C300.288 191.219 99.1332 219.852 99.1332 219.852C99.1332 219.852 85.1807 222.632 83.9655 243.328C82.7503 264.023 83.9655 309 83.9655 309L42 292.044V220.479Z" fill="#2BD0D0"/>
<path opacity="0.19" d="M241.579 179.918C231.55 178.637 221.439 177.709 211.333 178.084C203.738 178.376 196.192 179.41 188.66 180.439L122.233 189.546C121.106 189.701 119.821 189.952 119.258 190.925C118.176 192.78 120.718 194.61 122.778 195.317C144.865 202.908 168.462 210.596 191.198 205.183C201.592 202.709 211.248 197.57 221.791 195.785C232.334 194 243.156 195.644 253.677 193.96C263.567 192.378 272.983 187.885 283.008 187.84C286.082 187.84 289.246 188.229 292.162 187.275C295.079 186.32 297.657 183.404 296.85 180.497C287.438 180.174 276.873 178.469 267.641 180.32C258.505 182.149 250.729 179.918 241.579 179.918Z" fill="url(#paint8_linear_0_355)"/>
<path d="M181 190.587L181.384 191.996C181.384 191.996 192.765 198.778 192.693 198.997C192.622 199.215 239.9 188.17 239.9 188.17L241 185L181 190.587Z" fill="#2BD0D0"/>
<path d="M181 190.587L181.384 191.996C181.384 191.996 192.765 198.778 192.693 198.997C192.622 199.215 239.9 188.17 239.9 188.17L241 185L181 190.587Z" fill="url(#paint9_linear_0_355)"/>
<path d="M182 191.112L224.345 182L242 185.446L193.893 197L182 191.112Z" fill="#2BD0D0"/>
<path d="M182 191.112L224.345 182L242 185.446L193.893 197L182 191.112Z" fill="url(#paint10_linear_0_355)"/>
<path d="M168.221 198.656L177.859 198.997C177.859 198.997 180.307 199.149 180.94 197.186C181.573 195.223 177.013 191.08 176.524 191.001C176.036 190.923 163.352 194.481 165.18 198.039L168.221 198.656Z" fill="#2BD0D0"/>
<path d="M168.221 198.656L177.859 198.997C177.859 198.997 180.307 199.149 180.94 197.186C181.573 195.223 177.013 191.08 176.524 191.001C176.036 190.923 163.352 194.481 165.18 198.039L168.221 198.656Z" fill="url(#paint11_linear_0_355)"/>
<path d="M54 296.731L49.2003 311.738C35.2788 316.828 23.4424 311.738 23.4424 311.738L20 296C20 296 37.3639 301.926 54 296.731Z" fill="#2BD0D0"/>
<path d="M54 296.731L49.2003 311.738C35.2788 316.828 23.4424 311.738 23.4424 311.738L20 296C20 296 37.3639 301.926 54 296.731Z" fill="url(#paint12_linear_0_355)"/>
<path d="M59 283L57.4539 294.787L53.537 296.879C36.8521 302.041 19.4099 296.157 19.4099 296.157L16.4027 293.873L15 283H59Z" fill="#2BD0D0"/>
<path d="M59 283L57.4539 294.787L53.537 296.879C36.8521 302.041 19.4099 296.157 19.4099 296.157L16.4027 293.873L15 283H59Z" fill="url(#paint13_linear_0_355)"/>
<ellipse cx="37" cy="283" rx="22" ry="4" fill="#2BD0D0"/>
<ellipse cx="37" cy="283" rx="22" ry="4" fill="url(#paint14_linear_0_355)"/>
<path d="M27.1616 194.91C24.9809 193.88 22.6374 193.102 20.7507 191.597C16.9503 188.537 15.9867 183.266 14.7968 178.538C13.6069 173.81 11.3041 168.611 6.61238 167.255C4.85697 166.754 2.79842 166.952 1.46376 168.2C0.0567119 169.515 -0.228317 171.676 0.156246 173.584C0.540809 175.491 1.47733 177.2 2.20122 179.008C3.89161 183.207 4.40616 187.787 3.6897 192.257C3.09702 195.923 1.68093 199.638 2.59031 203.232C4.13308 209.33 11.8198 212.905 12.0325 219.188C12.1772 223.428 8.6845 227.352 9.47625 231.524C10.0599 234.611 12.9056 237.021 13.0595 240.158C13.2314 243.715 9.86534 246.726 10.0282 250.283C10.1911 253.84 13.7472 256.218 16.0681 259.016C18.0139 261.366 19.1708 264.268 19.3754 267.311C19.4975 269.209 19.2532 271.176 19.873 272.975C20.3255 274.29 21.2303 275.406 21.9316 276.591C22.7052 277.87 23.2889 279.253 24.2209 280.438C26.6182 283.457 30.6157 284.71 34.31 283.602C35.0293 278.874 34.4005 274.05 34.5995 269.273C34.9932 260.015 38.4995 250.685 36.2554 241.699C35.432 238.404 33.8485 235.276 33.568 231.895C33.3192 228.875 34.1245 225.883 34.6855 222.904C35.8437 216.752 35.8256 210.392 35.3506 204.172C34.9751 199.236 31.5004 196.962 27.1616 194.91Z" fill="#2BD0D0"/>
<path d="M40.2266 219.179C40.1909 223.302 41.1206 227.565 39.8154 231.481C38.8275 234.448 36.6552 236.878 35.5332 239.795C32.9452 246.529 36.4272 254.08 35.7165 261.27C35.4215 264.232 34.4158 267.077 33.781 269.986C32.9927 273.668 32.7995 277.455 33.2089 281.199C33.1223 282.609 34.075 283.868 35.4438 284.153C37.6339 284.997 39.9027 285.616 42.2157 286C41.4338 281.641 42.2574 277.143 44.5311 273.355C48.0758 267.484 54.9639 263.528 56.2467 256.785C57.1139 252.219 55.0935 247.586 55.2365 242.938C55.3395 239.846 56.3924 236.863 58.2492 234.403C59.9165 232.208 62.1738 230.51 63.7248 228.234C67.4527 222.747 66.2906 215.412 65.182 208.85C64.0735 202.288 63.4298 194.737 67.8103 189.765C69.196 188.194 71.0018 187.015 72.2579 185.335C75.056 181.591 74.3498 175.824 71.0957 172.477C67.8416 169.131 62.6029 168.205 58.1777 169.677C56.3111 170.233 54.6636 171.365 53.4664 172.915C51.2315 176.122 52.1255 180.502 53.0731 184.314C53.9 187.624 54.566 191.445 53.4352 194.783C52.5903 197.266 50.4493 198.612 48.63 200.342C43.4201 205.212 40.3879 212.009 40.2266 219.179Z" fill="#2BD0D0"/>
<path d="M36.3575 255.785C35.7148 260.27 34.787 264.791 34.597 269.289V269.741C34.5868 269.853 34.5609 269.962 34.52 270.066C33.7173 273.752 33.5171 277.542 33.9271 281.292C33.9515 281.899 34.1058 282.494 34.3797 283.037C34.3571 283.226 34.3299 283.412 34.3028 283.602C30.6073 284.71 26.6086 283.457 24.2104 280.437C23.3053 279.253 22.6943 277.869 21.9204 276.59C21.1963 275.401 20.3138 274.284 19.8612 272.973C19.2412 271.165 19.4856 269.208 19.3634 267.309C19.1588 264.265 18.0015 261.363 16.0551 259.013C13.7334 256.233 10.1717 253.9 10.0133 250.284C9.85489 246.667 13.2175 243.715 13.0455 240.157C12.8916 237.02 10.045 234.61 9.46116 231.522C8.66916 227.35 12.1766 223.426 12.0182 219.185C11.8055 212.901 4.11629 209.326 2.57302 203.227C1.66788 199.633 3.0799 195.917 3.67277 192.251C4.39268 187.787 3.88426 183.211 2.20192 179.014C1.4778 177.206 0.540981 175.501 0.156296 173.589C-0.22839 171.677 0.05673 169.52 1.46423 168.2C2.82194 166.952 4.85851 166.754 6.61448 167.255C11.3122 168.612 13.6067 173.829 14.8015 178.557C15.9963 183.286 16.9557 188.553 20.7573 191.618C22.6355 193.132 24.9889 193.901 27.1703 194.931C31.5149 196.984 34.9907 199.258 35.3618 204.149C35.8144 210.37 35.8551 216.731 34.6965 222.883C34.1353 225.862 33.3388 228.855 33.5787 231.875C33.8185 234.895 35.1355 237.752 35.9954 240.682C36.0904 241.012 36.1855 241.346 36.2669 241.681C37.4074 246.332 37.0408 251.039 36.3575 255.785Z" fill="#30C59B"/>
<path d="M33.7185 282C33.421 281.472 33.2496 280.892 33.2157 280.298C32.7851 276.63 33.0001 272.922 33.8525 269.318C33.8765 269.212 33.9052 269.106 33.9339 269C33.7616 273.342 34.3074 277.72 33.7185 282Z" fill="url(#paint15_linear_0_355)"/>
<path d="M72.2479 185.335C70.9899 187.015 69.1813 188.194 67.7935 189.765C63.4063 194.733 64.051 202.288 65.1612 208.85C66.2714 215.412 67.4354 222.747 63.7018 228.234C62.1484 230.492 59.8876 232.208 58.2178 234.403C56.3581 236.863 55.3036 239.846 55.2005 242.938C55.0572 247.586 57.0807 252.219 56.2122 256.785C54.9274 263.528 48.0287 267.493 44.4786 273.355C42.2099 277.146 41.3916 281.643 42.1776 286C39.8669 285.616 37.6006 284.997 35.4132 284.153C34.815 283.974 34.2724 283.642 33.8374 283.191C33.7757 283.118 33.7203 283.039 33.6718 282.956C33.3943 282.418 33.234 281.827 33.2017 281.222C32.799 277.476 33.0001 273.689 33.7971 270.008C33.8195 269.9 33.8464 269.792 33.8732 269.683C34.5089 266.888 35.449 264.146 35.7356 261.292C35.8879 259.442 35.8519 257.58 35.6281 255.737C36.3041 250.995 36.6667 246.294 35.5252 241.678C35.4446 241.344 35.3506 241.01 35.2565 240.68C35.3416 240.391 35.4401 240.102 35.552 239.818C36.6757 236.9 38.8514 234.471 39.8407 231.503C41.1435 227.588 40.2168 223.325 40.2526 219.201C40.3108 212.079 43.4938 205.201 48.6062 200.342C50.4282 198.612 52.5726 197.266 53.4187 194.783C54.5513 191.445 53.8664 187.624 53.0561 184.314C52.1025 180.502 51.1982 176.122 53.45 172.915C54.5692 171.326 56.3331 170.291 58.1685 169.677C62.5826 168.205 67.8517 169.131 71.1063 172.477C74.3609 175.824 75.0503 181.613 72.2479 185.335Z" fill="#30C59B"/>
<path d="M152.829 114.453C152.829 114.453 134.028 117.365 125.332 138.139C116.635 158.912 121.158 184.648 121.31 186.913C121.462 189.177 147.958 199 155.532 199C163.107 199 164.685 191.396 164.685 191.396L151.3 185.686L191.967 180.98H199.269L195.247 187.773C195.247 187.773 203.184 188.607 208.488 188.797C213.793 188.987 217.395 178.476 217.989 173.25C218.584 168.024 194.559 122.152 190.97 119.435C187.382 116.718 177.644 110.079 152.829 114.453Z" fill="#2BD0D0"/>
<path d="M175.853 74.9249C175.853 74.9249 179.289 76.8477 178.98 83.0686C178.671 89.2894 176.734 98.6501 174.779 101.075C172.823 103.5 165.983 104.45 165.983 104.45C165.983 104.45 169.714 113.268 172.491 115.544C175.268 117.819 169.701 126.203 164.286 123.452C158.871 120.701 152.594 113.793 152.594 113.793C152.594 113.793 157.109 105.473 155.583 101.093C154.056 96.7137 148.226 81.3448 152.594 77.1463C156.962 72.9478 166.38 66.9306 175.853 74.9249Z" fill="url(#paint16_linear_0_355)"/>
<path opacity="0.25" d="M145.889 144L143 180.332L151.825 185L159 183.738L150.048 172.645L145.889 144Z" fill="white"/>
<path opacity="0.25" d="M193 142C193 142 204.939 170.79 199.647 181L195.569 180.206L193 142Z" fill="white"/>
<path d="M160.094 189.697C160.094 189.697 155.465 193.547 157.531 196.541C159.597 199.536 162.064 199.45 164.121 198.111C166.178 196.772 170.218 193.594 175.031 195.052C179.845 196.511 181.013 197.439 181.013 197.439C181.013 197.439 183.549 195.895 182.891 194.347C182.233 192.798 177.199 187.78 175.74 187.13C174.281 186.48 168.225 188.478 168.225 188.478C168.225 188.478 163.776 187.306 160.094 189.697Z" fill="url(#paint17_linear_0_355)"/>
<path d="M200.794 181.065C200.794 181.065 196.537 181.571 195.462 184.37C194.387 187.169 194 187.51 194 187.51C194 187.51 196.404 187.97 197.404 186.667C198.403 185.364 199.443 185.912 199.443 185.912L199.146 187.583C199.146 187.583 205.677 188.568 208.628 187.51C211.578 186.451 212.845 185.208 212.845 185.208L214 182.382C214 182.382 211.214 180.361 209.112 180.048C207.01 179.735 200.794 181.065 200.794 181.065Z" fill="url(#paint18_linear_0_355)"/>
<path d="M223.406 211C223.406 211 238.235 222.354 236.917 237.712C235.599 253.07 233.663 275.875 233.663 275.875C233.663 275.875 227.683 278.407 223.72 275.875C219.757 273.342 217.358 238.69 215.394 235.381C213.431 232.072 201.62 217.152 189 215.868L223.406 211Z" fill="#25233A"/>
<path d="M149 222.159C149 222.159 156.041 228.888 168.593 231.001C181.144 233.114 186.995 234.877 190.831 245.692C194.667 256.508 198.347 279.785 199.551 282.387C200.755 284.989 205.876 283.661 205.876 283.661C205.876 283.661 208.772 280.333 208.772 261.824C208.772 236.021 210.562 230.732 204.112 224.25C197.662 217.767 191.793 216 191.793 216L149 222.159Z" fill="#3F3D56"/>
<path d="M199 284L200.235 293.465H202.547C202.547 293.465 217.441 294.256 217.908 293.914C218.375 293.573 217.191 286.419 211.548 286.621C205.905 286.824 205.535 285.272 205.535 285.272L199 284Z" fill="#25233A"/>
<path d="M225 276.771L227.345 286L252.97 282.526C252.97 282.526 253.872 276.463 245.754 277.065C243.612 277.22 242.016 278.708 239.441 278.722C236.865 278.735 234.399 277.693 233.1 276L225 276.771Z" fill="#25233A"/>
<path d="M313.111 158.805L216.458 163.994C214.121 164.117 212.126 162.319 212 159.976C212 159.904 212 159.827 212 159.755V91.1003C212.002 88.32 214.22 86.0508 216.993 85.992L313.25 84.001C314.485 83.9756 315.679 84.4432 316.57 85.3007C317.461 86.1582 317.975 87.3354 318 88.5732V153.638C317.997 156.388 315.85 158.656 313.111 158.805Z" fill="#2BD0D0"/>
<path d="M319.11 158.805L222.454 163.994C220.116 164.114 218.123 162.314 218 159.972C218 159.9 218 159.828 218 159.755V91.1001C217.997 88.3196 220.215 86.0483 222.989 85.9919L319.259 84.0008C321.825 83.9531 323.946 85.9963 324 88.5685V153.638C323.997 156.388 321.85 158.657 319.11 158.805Z" fill="#2BD0D0"/>
<path d="M319.11 158.805L222.454 163.994C220.116 164.114 218.123 162.314 218 159.972C218 159.9 218 159.828 218 159.755V91.1001C217.997 88.3196 220.215 86.0483 222.989 85.9919L319.259 84.0008C321.825 83.9531 323.946 85.9963 324 88.5685V153.638C323.997 156.388 321.85 158.657 319.11 158.805Z" fill="url(#paint19_linear_0_355)"/>
<path d="M289.845 185.377L265.134 188C265.134 188 257.609 186.486 258.016 185.377C258.423 184.269 266.292 183.201 266.292 183.201V138.519C266.224 138.42 265.188 137.104 262.351 136.266C261.801 136.104 261.242 135.974 260.677 135.879C260.191 135.808 259.718 135.665 259.274 135.455C257.586 134.586 259.45 133.072 262.07 133.004C262.481 132.99 262.891 133.014 263.297 133.076H282.302C282.302 133.076 289.497 135.095 289.845 145.17C290.194 155.246 289.845 185.377 289.845 185.377Z" fill="#3A3054"/>
<path d="M270 185.472L265.286 188C265.286 188 257.6 186.486 258.016 185.377C258.432 184.269 266.483 183.201 266.483 183.201V138.516C266.386 138.412 265.207 137.227 262.458 136.263C261.434 135.911 260.383 135.64 259.315 135.451C257.591 134.582 259.495 133.068 262.171 133C264.45 133.302 268.937 135.735 269.228 137.123C269.519 138.511 270 185.472 270 185.472Z" fill="#51466B"/>
<path d="M179 279C178.119 280.001 177.709 280.371 178.23 279.547C178.5 279.388 178.757 279.205 179 279Z" fill="url(#paint20_linear_0_355)"/>
<defs>
<linearGradient id="paint0_linear_0_355" x1="138" y1="279" x2="145" y2="279" gradientUnits="userSpaceOnUse">
<stop stop-color="#183866"/>
<stop offset="1" stop-color="#1A7FC1"/>
</linearGradient>
<linearGradient id="paint1_linear_0_355" x1="155.995" y1="278.001" x2="160" y2="278.001" gradientUnits="userSpaceOnUse">
<stop/>
<stop offset="0.99" stop-opacity="0.01"/>
</linearGradient>
<linearGradient id="paint2_linear_0_355" x1="178.988" y1="98.7108" x2="186.517" y2="113.801" gradientUnits="userSpaceOnUse">
<stop/>
<stop offset="0.99" stop-opacity="0.01"/>
</linearGradient>
<linearGradient id="paint3_linear_0_355" x1="196.019" y1="-47.8294" x2="165.694" y2="-47.9015" gradientUnits="userSpaceOnUse">
<stop/>
<stop offset="0.99" stop-opacity="0.01"/>
</linearGradient>
<linearGradient id="paint4_linear_0_355" x1="241.252" y1="74.4701" x2="233.422" y2="39.9668" gradientUnits="userSpaceOnUse">
<stop/>
<stop offset="0.99" stop-opacity="0.01"/>
</linearGradient>
<linearGradient id="paint5_linear_0_355" x1="201.924" y1="111.159" x2="199.94" y2="110.533" gradientUnits="userSpaceOnUse">
<stop/>
<stop offset="0.99" stop-opacity="0.01"/>
</linearGradient>
<linearGradient id="paint6_linear_0_355" x1="175.071" y1="78.8134" x2="163.616" y2="91.4642" gradientUnits="userSpaceOnUse">
<stop/>
<stop offset="0.99" stop-opacity="0.01"/>
</linearGradient>
<linearGradient id="paint7_linear_0_355" x1="355.236" y1="30.1224" x2="22.0699" y2="-42.2256" gradientUnits="userSpaceOnUse">
<stop/>
<stop offset="1" stop-opacity="0.01"/>
</linearGradient>
<linearGradient id="paint8_linear_0_355" x1="144.221" y1="180.513" x2="322.219" y2="180.513" gradientUnits="userSpaceOnUse">
<stop stop-color="#183866"/>
<stop offset="1" stop-color="#1A7FC1"/>
</linearGradient>
<linearGradient id="paint9_linear_0_355" x1="51.869" y1="167.808" x2="52.8866" y2="239.627" gradientUnits="userSpaceOnUse">
<stop/>
<stop offset="0.99" stop-opacity="0.01"/>
</linearGradient>
<linearGradient id="paint10_linear_0_355" x1="133.696" y1="185.282" x2="139.875" y2="216.917" gradientUnits="userSpaceOnUse">
<stop/>
<stop offset="0.99" stop-opacity="0.01"/>
</linearGradient>
<linearGradient id="paint11_linear_0_355" x1="161.329" y1="192.127" x2="160.928" y2="204.43" gradientUnits="userSpaceOnUse">
<stop/>
<stop offset="0.99" stop-opacity="0.01"/>
</linearGradient>
<linearGradient id="paint12_linear_0_355" x1="86.0351" y1="41.891" x2="56.2714" y2="37.7174" gradientUnits="userSpaceOnUse">
<stop/>
<stop offset="0.99" stop-opacity="0.01"/>
</linearGradient>
<linearGradient id="paint13_linear_0_355" x1="90.3867" y1="61.2072" x2="66.7212" y2="54.9207" gradientUnits="userSpaceOnUse">
<stop/>
<stop offset="0.99" stop-opacity="0.01"/>
</linearGradient>
<linearGradient id="paint14_linear_0_355" x1="-129.945" y1="266.865" x2="-130.366" y2="328.774" gradientUnits="userSpaceOnUse">
<stop/>
<stop offset="0.99" stop-opacity="0.01"/>
</linearGradient>
<linearGradient id="paint15_linear_0_355" x1="62.2068" y1="56.7089" x2="58.6851" y2="56.7967" gradientUnits="userSpaceOnUse">
<stop/>
<stop offset="0.99" stop-opacity="0.01"/>
</linearGradient>
<linearGradient id="paint16_linear_0_355" x1="150.989" y1="124.006" x2="178.999" y2="124.006" gradientUnits="userSpaceOnUse">
<stop stop-color="#ECC4D7"/>
<stop offset="0.42" stop-color="#EFD4D1"/>
<stop offset="1" stop-color="#F2EAC9"/>
</linearGradient>
<linearGradient id="paint17_linear_0_355" x1="182.748" y1="173.405" x2="208.748" y2="173.405" gradientUnits="userSpaceOnUse">
<stop stop-color="#ECC4D7"/>
<stop offset="0.42" stop-color="#EFD4D1"/>
<stop offset="1" stop-color="#F2EAC9"/>
</linearGradient>
<linearGradient id="paint18_linear_0_355" x1="218.861" y1="177.235" x2="238.861" y2="177.235" gradientUnits="userSpaceOnUse">
<stop stop-color="#ECC4D7"/>
<stop offset="0.42" stop-color="#EFD4D1"/>
<stop offset="1" stop-color="#F2EAC9"/>
</linearGradient>
<linearGradient id="paint19_linear_0_355" x1="305.774" y1="152.482" x2="222.19" y2="249.854" gradientUnits="userSpaceOnUse">
<stop stop-color="#362958" stop-opacity="0.500601"/>
<stop offset="1" stop-color="#34313D" stop-opacity="0.01"/>
</linearGradient>
<linearGradient id="paint20_linear_0_355" x1="218.125" y1="-63.8348" x2="216.959" y2="-64.2661" gradientUnits="userSpaceOnUse">
<stop/>
<stop offset="0.99" stop-opacity="0.01"/>
</linearGradient>
</defs>
</svg>
