<svg xmlns="http://www.w3.org/2000/svg" width="136" height="139" viewBox="0 0 136 139" fill="none"><g filter="url(#a)"><ellipse cx="67.683" cy="66.329" rx="64.683" ry="66.329" fill="#2A45C2"/></g><ellipse cx="67.683" cy="63.388" rx="64.683" ry="63.388" fill="#4664F4"/><ellipse cx="67.683" cy="63.388" rx="64.683" ry="63.388" fill="url(#b)"/><ellipse cx="67.683" cy="64.695" rx="49.656" ry="49.665" fill="#BABFD4"/><ellipse cx="67.683" cy="67.309" rx="49.656" ry="47.051" fill="url(#c)"/><path d="M86.975 51.837a2.597 2.597 0 0 0-1.098-.177c-.508.036-.918.243-1.162.582-1.431 2.015-2.604 5.82-3.55 8.878-.434 1.414-1.016 3.306-1.438 4.205-.44-2.517.057-11.734.25-15.283l.003-.058c.133-2.466.151-2.898.122-3.088-.212-1.353-.752-2.24-1.605-2.638-.861-.403-1.98-.225-3.186.504-.605.367-.772 1.628-1.29 7.341l-.003.026c-.285 3.139-.943 10.367-1.752 11.57-.913-1.684-2.17-11.252-2.712-15.394-.38-2.9-.6-4.566-.749-5.07-.313-1.053-1.633-1.95-2.94-2-1.088-.054-1.981.502-2.407 1.469-.798.891-.516 3.847.365 10.847.42 3.332 1.285 10.214.74 10.986-1.086-.119-2.951-4.43-5.544-12.816-.727-2.35-.952-3.055-1.176-3.365-.44-1.077-1.937-1.908-3.28-1.814a2.824 2.824 0 0 0-.335.044c-.703.14-2.306.79-1.964 3.788.947 4.156 1.975 7.208 2.973 10.17l.02.06c.597 1.773 1.161 3.45 1.686 5.31 1.236 4.392.755 7.117.75 7.148-.042.28-.128.452-.258.512a.496.496 0 0 1-.173.04c-.392.027-.98-.234-1.283-.404-.691-1.328-4.136-7.658-7.257-8.536l-.112-.033-.113.01c-1.145.109-1.986.543-2.5 1.292-.816 1.183-.478 2.69-.397 2.993l.046.108c.026.046 2.529 4.63 2.916 6.762.334 1.829 2.062 3.81 3.452 5.402l.057.064c.453.521.844.972 1.153 1.388 4.031 4.225 10.407 7.778 10.459 7.807.795.59 1.238 1.16 1.284 1.65a.718.718 0 0 1-.142.52l-.139.145.882.86 16.82-1.187.717-3.301c2.218-9.324 1.755-17.275 1.748-17.328.008-.292.63-3.12 1.13-5.406l.014-.058c.996-4.553 2.235-10.218 2.473-12.373.103-.921-.483-1.768-1.495-2.152Z" fill="#3B4262"/><defs><linearGradient id="b" x1="3" y1="0" x2="3" y2="126.777" gradientUnits="userSpaceOnUse"><stop stop-color="#fff" stop-opacity=".097"/><stop offset="1" stop-color="#fff" stop-opacity=".01"/></linearGradient><linearGradient id="c" x1="116.515" y1="114.36" x2="116.515" y2="21.818" gradientUnits="userSpaceOnUse"><stop stop-color="#F3F3F3"/><stop offset="1" stop-color="#DADADA"/></linearGradient><filter id="a" x="0" y="0" width="135.366" height="138.658" filterUnits="userSpaceOnUse" color-interpolation-filters="sRGB"><feFlood flood-opacity="0" result="BackgroundImageFix"/><feColorMatrix in="SourceAlpha" values="0 0 0 0 0 0 0 0 0 0 0 0 0 0 0 0 0 0 127 0" result="hardAlpha"/><feOffset dy="3"/><feGaussianBlur stdDeviation="1.5"/><feColorMatrix values="0 0 0 0 0 0 0 0 0 0 0 0 0 0 0 0 0 0 0.196706 0"/><feBlend in2="BackgroundImageFix" result="effect1_dropShadow_0_1376"/><feBlend in="SourceGraphic" in2="effect1_dropShadow_0_1376" result="shape"/></filter></defs></svg>