<svg xmlns="http://www.w3.org/2000/svg" width="137" height="139" viewBox="0 0 137 139" fill="none"><g filter="url(#a)"><ellipse cx="68.5" cy="66.671" rx="64.683" ry="66.329" fill="#9D1634"/></g><ellipse cx="68.5" cy="63.73" rx="64.683" ry="63.388" fill="#DB2E4D"/><ellipse cx="68.5" cy="63.73" rx="64.683" ry="63.388" fill="url(#b)"/><ellipse cx="68.5" cy="65.037" rx="49.656" ry="49.665" fill="#BABFD4"/><ellipse cx="68.5" cy="67.651" rx="49.656" ry="47.051" fill="url(#c)"/><path d="M87.736 57.904c-.573-7.256-8.685-6.515-8.685-6.515-3.424-6.063-8.772-1.671-8.772-1.671-4.11-5.943-9.261-.436-9.261-.436-8.883-.963-8.539 6.334-8.539 6.334-.209 2.32 1.252 9.495 1.252 9.495-1.318-4.136-4.176-.703-4.176-.703-3.514 5.448-.869 8.43-.869 8.43 4.755 5.599 14.888 12.318 14.888 12.318 3.67 2.112 2.118 3.995 2.118 3.995l22.193-3.684.51-4.229c3.374-10.25-.66-23.334-.66-23.334Z" fill="#3B4262"/><defs><linearGradient id="b" x1="3.817" y1=".342" x2="3.817" y2="127.119" gradientUnits="userSpaceOnUse"><stop stop-color="#fff" stop-opacity=".097"/><stop offset="1" stop-color="#fff" stop-opacity=".01"/></linearGradient><linearGradient id="c" x1="117.333" y1="114.702" x2="117.333" y2="22.16" gradientUnits="userSpaceOnUse"><stop stop-color="#F3F3F3"/><stop offset="1" stop-color="#DADADA"/></linearGradient><filter id="a" x=".817" y=".342" width="135.366" height="138.658" filterUnits="userSpaceOnUse" color-interpolation-filters="sRGB"><feFlood flood-opacity="0" result="BackgroundImageFix"/><feColorMatrix in="SourceAlpha" values="0 0 0 0 0 0 0 0 0 0 0 0 0 0 0 0 0 0 127 0" result="hardAlpha"/><feOffset dy="3"/><feGaussianBlur stdDeviation="1.5"/><feColorMatrix values="0 0 0 0 0 0 0 0 0 0 0 0 0 0 0 0 0 0 0.196706 0"/><feBlend in2="BackgroundImageFix" result="effect1_dropShadow_0_1396"/><feBlend in="SourceGraphic" in2="effect1_dropShadow_0_1396" result="shape"/></filter></defs></svg>