<svg width="136" height="139" viewBox="0 0 136 139" fill="none" xmlns="http://www.w3.org/2000/svg"><g filter="url(#a)"><ellipse cx="68.317" cy="66.329" rx="64.683" ry="66.329" fill="#C76C1B"/></g><ellipse cx="68.317" cy="63.388" rx="64.683" ry="63.388" fill="#EB9F0E"/><ellipse cx="68.317" cy="63.388" rx="64.683" ry="63.388" fill="url(#b)"/><ellipse cx="68.317" cy="64.695" rx="49.656" ry="49.665" fill="#BABFD4"/><ellipse cx="68.317" cy="67.309" rx="49.656" ry="47.051" fill="url(#c)"/><path d="m55.354 64.27 5.364-7.543c-2.23-.372-6.324-.454-9.677 2.9-5.286 5.287-7.427 16.709-7.873 19.474l13.434 13.437c2.419-.207 13.127-1.637 23.445-11.957.11-.223 2.623-2.08.568-4.136-.98-.98-2.604-.962-3.606.04-.51.51-1.304.518-1.803.018-.5-.5-.493-1.293.018-1.803l3.646-3.647c1.853-1.853.106-4.98-2.48-4.229l-2.985 2.556a1.279 1.279 0 0 1-1.803-.125c-.463-.536-.364-1.348.162-1.805 10.427-9.15 8.905-8.048 15.613-14.337 2.507-2.087-.646-5.779-3.116-3.665L68.033 64.044c-.472.402-1.195.41-1.66-.019-.536-.463-.549-1.13-.198-1.657l11.32-17.6c1.654-2.242-1.603-4.73-3.345-2.471L57.413 65.708a1.263 1.263 0 0 1-1.77.31 1.238 1.238 0 0 1-.289-1.748Z" fill="#3B4262"/><defs><linearGradient id="b" x1="3.634" y1="0" x2="3.634" y2="126.777" gradientUnits="userSpaceOnUse"><stop stop-color="#fff" stop-opacity=".097"/><stop offset="1" stop-color="#fff" stop-opacity=".01"/></linearGradient><linearGradient id="c" x1="117.149" y1="114.36" x2="117.149" y2="21.818" gradientUnits="userSpaceOnUse"><stop stop-color="#F3F3F3"/><stop offset="1" stop-color="#DADADA"/></linearGradient><filter id="a" x=".634" y="0" width="135.366" height="138.658" filterUnits="userSpaceOnUse" color-interpolation-filters="sRGB"><feFlood flood-opacity="0" result="BackgroundImageFix"/><feColorMatrix in="SourceAlpha" values="0 0 0 0 0 0 0 0 0 0 0 0 0 0 0 0 0 0 127 0" result="hardAlpha"/><feOffset dy="3"/><feGaussianBlur stdDeviation="1.5"/><feColorMatrix values="0 0 0 0 0 0 0 0 0 0 0 0 0 0 0 0 0 0 0.196706 0"/><feBlend in2="BackgroundImageFix" result="effect1_dropShadow_0_1386"/><feBlend in="SourceGraphic" in2="effect1_dropShadow_0_1386" result="shape"/></filter></defs></svg>